<svg version="1.1" xmlns="http://www.w3.org/2000/svg" viewBox="0 0 65.13308010533831 60.01440112046021" width="195.39924031601493" height="180.04320336138062">
  <!-- svg-source:excalidraw -->
  
  <defs>
    <style>
      @font-face {
        font-family: "Virgil";
        src: url("https://unpkg.com/@excalidraw/excalidraw@0.13.0/dist/excalidraw-assets/Virgil.woff2");
      }
      @font-face {
        font-family: "Cascadia";
        src: url("https://unpkg.com/@excalidraw/excalidraw@0.13.0/dist/excalidraw-assets/Cascadia.woff2");
      }
    </style>
  </defs>
  <rect x="0" y="0" width="65.13308010533831" height="60.01440112046021" fill="#ffffff"></rect><g stroke-linecap="round" transform="translate(12 9.507200560230103) rotate(83.14989131925996 20 20.5)"><path d="M13.27 0.37 C16.98 -1.03, 23.19 -0.24, 27.42 1.65 C31.65 3.55, 36.55 7.96, 38.63 11.74 C40.7 15.52, 41.11 20.22, 39.88 24.33 C38.65 28.45, 34.76 33.52, 31.24 36.42 C27.73 39.33, 23.07 41.85, 18.77 41.75 C14.48 41.64, 8.44 38.89, 5.46 35.8 C2.48 32.7, 1.29 27.67, 0.9 23.17 C0.51 18.66, 0.48 12.49, 3.14 8.77 C5.8 5.06, 14.06 2.22, 16.87 0.87 C19.68 -0.47, 19.77 0.62, 20.01 0.71 M15.2 1.81 C18.89 0.22, 25.06 -0.45, 28.66 1.08 C32.27 2.6, 34.96 6.84, 36.83 10.96 C38.7 15.07, 40.78 21.52, 39.88 25.76 C38.97 29.99, 35.15 33.97, 31.4 36.37 C27.65 38.76, 21.58 40.32, 17.38 40.15 C13.18 39.98, 9.02 38.24, 6.18 35.34 C3.33 32.44, 0.78 27.24, 0.32 22.75 C-0.14 18.26, 1.22 11.93, 3.42 8.4 C5.61 4.86, 11.75 2.93, 13.48 1.55 C15.2 0.16, 13.58 0.1, 13.75 0.1" stroke="#000000" stroke-width="1" fill="none"></path></g><g stroke-linecap="round" transform="translate(10 20.507200560230103) rotate(0 11 9)"><path d="M9.01 -0.33 C11 -0.86, 13.73 -0.32, 15.8 0.75 C17.87 1.83, 20.47 4.18, 21.41 6.1 C22.34 8.01, 22.24 10.53, 21.4 12.25 C20.55 13.96, 18.54 15.39, 16.35 16.4 C14.16 17.41, 10.67 18.73, 8.27 18.31 C5.87 17.9, 3.36 15.63, 1.93 13.91 C0.51 12.19, -0.4 9.95, -0.3 8 C-0.19 6.06, 0.74 3.52, 2.56 2.21 C4.37 0.9, 9.21 0.53, 10.6 0.15 C11.98 -0.23, 10.85 -0.35, 10.88 -0.05 M9.88 -0.58 C11.84 -1.1, 15.05 -0.11, 17.08 1.16 C19.12 2.44, 21.71 4.85, 22.09 7.08 C22.47 9.31, 20.43 12.57, 19.36 14.53 C18.28 16.49, 17.77 18.21, 15.62 18.81 C13.48 19.42, 8.59 19.25, 6.48 18.15 C4.36 17.05, 3.91 13.78, 2.94 12.22 C1.98 10.67, 0.58 10.41, 0.68 8.82 C0.78 7.22, 1.64 4.34, 3.55 2.64 C5.47 0.95, 11.19 -1.02, 12.18 -1.36 C13.17 -1.7, 9.58 0, 9.51 0.61" stroke="#000000" stroke-width="1" fill="none"></path></g><g transform="translate(25.5 16.507200560230103) rotate(83.14989131925996 14.5 13.5)"><text x="14.5" y="19" font-family="Virgil, Segoe UI Emoji" font-size="20px" fill="#000000" text-anchor="middle" style="white-space: pre;" direction="ltr">SM</text></g></svg>